<?xml version="1.0" encoding="utf-8"?>
<!-- Generator: Adobe Illustrator 16.0.0, SVG Export Plug-In . SVG Version: 6.00 Build 0)  -->
<!DOCTYPE svg PUBLIC "-//W3C//DTD SVG 1.1//EN" "http://www.w3.org/Graphics/SVG/1.1/DTD/svg11.dtd">
<svg version="1.1" id="Layer_1" xmlns="http://www.w3.org/2000/svg" xmlns:xlink="http://www.w3.org/1999/xlink" x="0px" y="0px"
	 width="200px" height="200px" viewBox="815.5 688.026 200 200" enable-background="new 815.5 688.026 200 200"
	 xml:space="preserve">
<g>
	<g>
		<path fill="#444445" d="M959.112,770.776c-7.838,0-13.05-4.311-13.942-11.529c-0.9-7.292,5.195-14.067,13.589-15.103
			c0.724-0.09,1.459-0.135,2.186-0.135c7.552,0,13.858,4.934,14.667,11.478c0.446,3.601-0.77,7.166-3.419,10.038
			c-2.559,2.773-6.17,4.572-10.169,5.064C961.033,770.713,960.052,770.776,959.112,770.776z M960.944,748.344
			c-0.549,0-1.104,0.033-1.654,0.102c-6.021,0.743-10.426,5.351-9.817,10.271c0.789,6.386,5.677,7.727,9.64,7.727
			c0.762,0,1.562-0.053,2.38-0.153c2.983-0.367,5.652-1.682,7.515-3.702c1.771-1.921,2.589-4.253,2.303-6.566
			C970.77,751.644,966.312,748.344,960.944,748.344z"/>
	</g>
	<g>
		<path fill="#444445" d="M958.403,831.925h-0.002c-2.051,0-4.088-0.373-6.062-1.111c-3.776-1.411-6.87-4-8.713-7.293
			c-1.909-3.41-2.26-7.159-0.988-10.559c2.046-5.48,6.294-8.499,11.96-8.499c2.226,0,4.604,0.467,7.069,1.388
			c3.773,1.412,6.868,4.001,8.71,7.294c1.908,3.41,2.26,7.159,0.99,10.558C969.5,828.697,964.411,831.925,958.403,831.925z
			 M954.599,808.798c-3.834,0-6.492,1.912-7.901,5.683c-0.817,2.186-0.564,4.644,0.712,6.924c1.343,2.398,3.632,4.298,6.446,5.349
			c1.487,0.557,3.017,0.838,4.546,0.838h0.002c4.183,0,7.676-2.121,8.903-5.407c0.817-2.186,0.566-4.644-0.71-6.924
			c-1.343-2.396-3.631-4.296-6.448-5.348C958.173,809.171,956.304,808.798,954.599,808.798z"/>
	</g>
	<g>
		<path fill="#444445" d="M876.619,776.287c-0.28,0-0.563-0.054-0.838-0.169c-13.768-5.782-38.343-16.532-48.27-23.565
			c-0.842-0.595-1.148-1.703-0.729-2.647c0.419-0.942,1.445-1.465,2.453-1.234c0.255,0.056,25.594,5.744,43.128,11.501l27.569,8.086
			c1.151,0.337,1.807,1.54,1.472,2.689c-0.338,1.147-1.539,1.805-2.692,1.47l-27.635-8.106c-8.858-2.91-19.723-5.798-28.287-7.941
			c11.155,5.684,25.392,11.855,34.668,15.753c1.105,0.463,1.622,1.734,1.16,2.837C878.27,775.789,877.466,776.287,876.619,776.287z"
			/>
	</g>
	<g>
		<path fill="#444445" d="M959.107,837.714c-2.934,0-5.921-0.543-8.806-1.62c-11.428-4.272-17.729-15.765-14.049-25.617
			c1.169-3.124,2.817-5.676,4.92-7.631l-23.839-8.957c-1.121-0.421-1.688-1.671-1.267-2.791c0.422-1.121,1.673-1.688,2.791-1.267
			l26.774,10.06c0.058,0.023,0.116,0.047,0.171,0.072l0.784,0.373c0.738,0.354,1.216,1.093,1.234,1.911
			c0.018,0.817-0.427,1.577-1.149,1.961c-2.854,1.515-4.991,4.134-6.358,7.787c-2.848,7.614,2.315,16.603,11.504,20.037
			c4.512,1.688,9.293,1.792,13.462,0.294c4.042-1.452,7.014-4.25,8.368-7.875c1.355-3.622,0.946-7.682-1.151-11.429
			c-2.163-3.864-5.842-6.92-10.355-8.607c-0.809-0.303-1.692-0.584-2.699-0.858c-0.149-0.042-0.293-0.1-0.429-0.17l-40.139-15.104
			c-1.12-0.422-1.687-1.673-1.265-2.792c0.421-1.121,1.675-1.687,2.792-1.267l40.384,15.198c0.019,0.009,0.039,0.016,0.059,0.024
			c1.031,0.29,1.953,0.587,2.814,0.908c5.473,2.047,9.955,5.793,12.62,10.552c2.73,4.876,3.237,10.227,1.431,15.064
			c-1.81,4.838-5.702,8.542-10.961,10.435C964.321,837.276,961.736,837.714,959.107,837.714z"/>
	</g>
	<g>
		<path fill="#444445" d="M906.381,784.96c-1.615,0-2.981-1.211-3.181-2.815c-0.218-1.75,1.032-3.354,2.788-3.574
			c1.801-0.23,3.361,1.055,3.578,2.789c0.217,1.753-1.036,3.358-2.79,3.574C906.642,784.951,906.51,784.96,906.381,784.96z
			 M906.387,781.434c-0.215,0.024-0.342,0.184-0.318,0.355c0.02,0.159,0.152,0.281,0.312,0.281l0.039-0.003
			c0.175-0.023,0.299-0.181,0.277-0.353C906.677,781.556,906.545,781.434,906.387,781.434z"/>
	</g>
	<g>
		<path fill="#444445" d="M850.442,793.979C850.441,793.979,850.441,793.979,850.442,793.979c-12.761,0-23.785-0.794-23.895-0.803
			c-1.008-0.073-1.83-0.831-1.983-1.829c-0.155-0.996,0.398-1.968,1.336-2.345c17.227-6.911,67.672-14.124,83.408-16.257
			c0.134-0.046,0.273-0.077,0.418-0.095l31.661-3.909c-1.587-2.389-2.595-5.254-3.004-8.562c-0.634-5.126,1.104-10.212,4.894-14.32
			c3.698-4.008,8.928-6.609,14.726-7.325c1.054-0.13,2.119-0.196,3.169-0.196c10.893,0,19.976,7.059,21.13,16.417
			c0.082,0.638,0.121,1.288,0.121,1.948c0.851,0.094,1.914,0.252,3.312,0.46c0.65,0.097,1.083,0.155,1.475,0.206
			c1.528,0.202,2.451,0.323,11.66,2.18c3.791,0.765,6.114,2.081,7.105,4.024c0.454,0.894,0.823,2.344-0.009,4.16
			c-0.501,1.095-1.856,2.931-5.297,2.931c-2.966,0-6.27-1.345-7.177-1.741l-6.352-1.511c-1.918-0.455-3.726-0.687-5.369-0.687
			c-1.258,0-2.157,0.138-2.685,0.252c-3.585,5.089-9.649,8.588-16.405,9.422c-0.907,0.112-1.871,0.188-2.939,0.227
			c-0.026,0.004-0.052,0.009-0.079,0.011l-43.821,5.416l-0.255,5.479c-0.051,1.088-0.9,1.967-1.987,2.059l-45.161,3.738
			C863.229,793.761,857.174,793.979,850.442,793.979z M839.131,789.452c3.393,0.11,7.262,0.193,11.311,0.193h0.001
			c6.614,0,12.548-0.213,17.639-0.635l43.265-3.581l0.252-5.405c0.049-1.055,0.852-1.921,1.899-2.049l45.375-5.606
			c0.147-0.037,0.299-0.06,0.455-0.063c1.046-0.033,1.969-0.101,2.821-0.206c5.803-0.717,10.949-3.771,13.769-8.172
			c0.313-0.491,0.799-0.815,1.331-0.94c0.634-0.203,2.163-0.596,4.523-0.596c1.981,0,4.125,0.271,6.373,0.806l6.547,1.558
			c0.135,0.032,0.27,0.077,0.396,0.136c0.881,0.399,3.604,1.44,5.581,1.44c0.438,0,1.196-0.053,1.357-0.402
			c0.04-0.088,0.129-0.302,0.086-0.387c-0.181-0.353-1.269-1.173-4.102-1.743c-9.062-1.828-9.931-1.942-11.368-2.132
			c-0.412-0.055-0.869-0.113-1.552-0.216c-2.042-0.306-3.394-0.507-4.104-0.507c-0.19,0-0.261,0.015-0.263,0.015
			c-0.708,0.226-1.479,0.062-2.046-0.424c-0.565-0.485-0.838-1.227-0.729-1.964c0.166-1.129,0.185-2.232,0.054-3.28
			c-0.889-7.195-8.124-12.617-16.83-12.617c-0.872,0-1.76,0.054-2.638,0.161c-4.782,0.592-9.069,2.71-12.069,5.964
			c-2.911,3.156-4.254,7.01-3.779,10.851c0.48,3.871,1.95,6.917,4.371,9.052c0.613,0.542,0.87,1.383,0.662,2.175
			s-0.844,1.398-1.646,1.568l-0.847,0.182c-0.062,0.014-0.124,0.023-0.187,0.031l-34.385,4.246c-0.12,0.039-0.242,0.066-0.367,0.083
			C897.794,778.676,861.095,783.876,839.131,789.452z"/>
	</g>
	<g>
		<path fill="#444445" d="M885.619,774.445c-0.255,0-0.517-0.047-0.77-0.144l-5.817-2.218c-1.118-0.426-1.677-1.679-1.251-2.797
			c0.424-1.118,1.672-1.684,2.796-1.252l5.817,2.218c1.117,0.426,1.678,1.68,1.25,2.796
			C887.317,773.914,886.493,774.445,885.619,774.445z"/>
	</g>
</g>
</svg>
