<?xml version="1.0" encoding="utf-8"?>
<!-- Generator: Adobe Illustrator 16.0.0, SVG Export Plug-In . SVG Version: 6.00 Build 0)  -->
<!DOCTYPE svg PUBLIC "-//W3C//DTD SVG 1.1//EN" "http://www.w3.org/Graphics/SVG/1.1/DTD/svg11.dtd">
<svg version="1.1" id="Layer_1" xmlns="http://www.w3.org/2000/svg" xmlns:xlink="http://www.w3.org/1999/xlink" x="0px" y="0px"
	 width="200px" height="200px" viewBox="815.5 688.026 200 200" enable-background="new 815.5 688.026 200 200"
	 xml:space="preserve">
<g>
	<g>
		<path fill="#444445" d="M914.113,860.06h-64.82c-1.176,0-2.133-0.955-2.133-2.134v-99.414c0-1.178,0.957-2.134,2.133-2.134h64.82
			c1.178,0,2.131,0.956,2.131,2.134v99.414C916.244,859.104,915.291,860.06,914.113,860.06z M851.428,855.793h60.553v-95.149
			h-60.553V855.793z"/>
	</g>
	<g>
		<path fill="#444445" d="M914.969,866.205h-65.441c-2.906,0-5.271-2.364-5.271-5.27c0-2.906,2.365-5.271,5.271-5.271h65.441
			c2.906,0,5.27,2.364,5.27,5.271C920.238,863.841,917.875,866.205,914.969,866.205z M849.527,859.932
			c-0.553,0-1.004,0.45-1.004,1.004c0,0.553,0.451,1.003,1.004,1.003h65.441c0.553,0,1.004-0.45,1.004-1.003
			c0-0.554-0.451-1.004-1.004-1.004H849.527z"/>
	</g>
	<g>
		<path fill="#444445" d="M914.969,760.644h-65.441c-2.906,0-5.271-2.362-5.271-5.27c0-2.906,2.365-5.271,5.271-5.271h65.441
			c2.906,0,5.27,2.364,5.27,5.271C920.238,758.281,917.875,760.644,914.969,760.644z M849.527,754.37
			c-0.553,0-1.004,0.45-1.004,1.004s0.451,1.004,1.004,1.004h65.441c0.553,0,1.004-0.45,1.004-1.004s-0.451-1.004-1.004-1.004
			H849.527z"/>
	</g>
	<g>
		<path fill="#444445" d="M912.162,753.288c-1.18,0-2.133-0.956-2.133-2.133c0-4.816-6.111-8.943-11.109-8.943h-32.957
			c-5,0-11.109,4.127-11.109,8.943c0,1.177-0.955,2.133-2.131,2.133c-1.18,0-2.135-0.956-2.135-2.133
			c0-7.44,8.266-13.21,15.375-13.21h32.957c7.107,0,15.373,5.77,15.373,13.21C914.293,752.332,913.338,753.288,912.162,753.288z"/>
	</g>
	<g>
		<path fill="#444445" d="M884.693,742.212h-4.439c-1.176,0-2.133-0.956-2.133-2.134v-5.3c0-1.177,0.957-2.133,2.133-2.133h4.439
			c1.18,0,2.135,0.956,2.135,2.133v5.3C886.828,741.256,885.873,742.212,884.693,742.212z"/>
	</g>
	<g>
		<path fill="#444445" d="M893.232,736.912h-20.83c-1.18,0-2.135-0.956-2.135-2.134v-22.797c0-1.179,0.955-2.134,2.135-2.134h20.83
			c1.178,0,2.133,0.955,2.133,2.134v22.797C895.365,735.956,894.41,736.912,893.232,736.912z M874.533,732.646H891.1v-18.531
			h-16.566V732.646z"/>
	</g>
	<g>
		<path fill="#444445" d="M877.654,730.735c-0.635,0-1.258-0.124-1.861-0.365c-1.094-0.44-1.623-1.684-1.184-2.775
			c0.439-1.093,1.686-1.625,2.777-1.184c0.096,0.04,0.18,0.058,0.268,0.058c0.713,0,1.793-1.396,1.793-3.503
			c0-2.104-1.08-3.5-1.793-3.5c-0.16,0-0.318,0.058-0.49,0.176c-0.967,0.671-2.299,0.421-2.965-0.55
			c-0.668-0.971-0.42-2.299,0.549-2.967c0.881-0.605,1.887-0.925,2.906-0.925c3.396,0,6.059,3.411,6.059,7.766
			C883.713,727.322,881.051,730.735,877.654,730.735z"/>
	</g>
	<g>
		<path fill="#444445" d="M875.775,725.875c-1.539,0-2.791-1.304-2.791-2.906c0-1.605,1.252-2.911,2.791-2.911
			c1.537,0,2.787,1.306,2.787,2.911C878.562,724.571,877.312,725.875,875.775,725.875z M875.775,721.609
			c-0.816,0-1.479,0.609-1.479,1.359c0,0.734,0.676,1.355,1.479,1.355c0.812,0,1.475-0.608,1.475-1.355
			C877.25,722.219,876.588,721.609,875.775,721.609z"/>
	</g>
	<g>
		<path fill="#444445" d="M855.967,833.043c-1.178,0-2.133-0.955-2.133-2.134v-65.267c0-1.178,0.955-2.133,2.133-2.133
			c1.18,0,2.133,0.955,2.133,2.133v65.267C858.1,832.088,857.146,833.043,855.967,833.043z"/>
	</g>
	<g>
		<path fill="#444445" d="M855.967,843.417c-1.178,0-2.133-0.955-2.133-2.134v-4.415c0-1.177,0.955-2.133,2.133-2.133
			c1.18,0,2.133,0.956,2.133,2.133v4.415C858.1,842.462,857.146,843.417,855.967,843.417z"/>
	</g>
	<g>
		<path fill="#444445" d="M855.967,851.834c-1.178,0-2.133-0.955-2.133-2.133v-2.082c0-1.178,0.955-2.134,2.133-2.134
			c1.18,0,2.133,0.956,2.133,2.134v2.082C858.1,850.879,857.146,851.834,855.967,851.834z"/>
	</g>
	<g>
		<path fill="#444445" d="M909.328,813.51h-34.469c-4.82,0-8.742-3.922-8.742-8.742s3.922-8.74,8.742-8.74h10.689
			c-0.133-0.821-0.197-1.647-0.197-2.477c0-8.775,7.141-15.915,15.92-15.915c3.486,0,6.795,1.105,9.572,3.198
			c0.941,0.71,1.129,2.047,0.42,2.987c-0.707,0.941-2.045,1.126-2.988,0.421c-2.031-1.53-4.453-2.34-7.004-2.34
			c-6.426,0-11.654,5.226-11.654,11.648c0,1.311,0.23,2.622,0.682,3.896c0.23,0.652,0.131,1.378-0.268,1.944
			c-0.4,0.566-1.049,0.902-1.742,0.902h-13.43c-2.469,0-4.475,2.007-4.475,4.475s2.006,4.477,4.475,4.477h34.469
			c1.178,0,2.133,0.955,2.133,2.133S910.506,813.51,909.328,813.51z"/>
	</g>
	<g>
		<path fill="#444445" d="M906.779,806.899h-30.451c-1.18,0-2.135-0.955-2.135-2.133c0-1.179,0.955-2.134,2.135-2.134h30.451
			c1.178,0,2.133,0.955,2.133,2.134C908.912,805.944,907.957,806.899,906.779,806.899z"/>
	</g>
	<g>
		<path fill="#444445" d="M976.562,866.205H924.52c-1.18,0-2.133-0.955-2.133-2.134c0-1.178,0.953-2.133,2.133-2.133h52.043
			c1.178,0,2.133,0.955,2.133,2.133C978.695,865.25,977.74,866.205,976.562,866.205z"/>
	</g>
	<g>
		<path fill="#444445" d="M976.562,804.333H924.52c-1.18,0-2.133-0.955-2.133-2.133s0.953-2.133,2.133-2.133h52.043
			c1.178,0,2.133,0.955,2.133,2.133S977.74,804.333,976.562,804.333z"/>
	</g>
	<g>
		<path fill="#444445" d="M924.584,866.205c-0.994,0-1.945-0.336-2.828-1c-0.943-0.707-1.135-2.044-0.428-2.986
			c0.705-0.942,2.043-1.133,2.986-0.428c0.16,0.121,0.256,0.147,0.27,0.147c1.717,0,5.914-10.094,5.914-28.803
			s-4.197-28.803-5.914-28.803c-0.303,0-2.18,1.44-3.828,8.281c-0.277,1.147-1.434,1.847-2.574,1.573
			c-1.146-0.276-1.85-1.428-1.574-2.573c1.848-7.662,4.531-11.547,7.977-11.547c8.053,0,10.182,21.631,10.182,33.068
			C934.766,844.574,932.637,866.205,924.584,866.205z"/>
	</g>
	<g>
		<path fill="#444445" d="M976.562,866.205c-1.176,0-2.133-0.955-2.133-2.134c0-1.178,0.957-2.133,2.133-2.133
			c1.717,0,5.914-10.094,5.914-28.803s-4.197-28.803-5.914-28.803c-1.176,0-2.133-0.955-2.133-2.133s0.957-2.133,2.133-2.133
			c8.055,0,10.182,21.631,10.182,33.068C986.744,844.574,984.617,866.205,976.562,866.205z"/>
	</g>
	<g>
		<path fill="#444445" d="M962.301,810.352h-25.76c-1.176,0-2.131-0.955-2.131-2.133s0.955-2.133,2.131-2.133h25.76
			c1.178,0,2.135,0.955,2.135,2.133S963.479,810.352,962.301,810.352z"/>
	</g>
	<g>
		<path fill="#444445" d="M973.338,810.352h-4.932c-1.178,0-2.133-0.955-2.133-2.133s0.955-2.133,2.133-2.133h4.932
			c1.178,0,2.133,0.955,2.133,2.133S974.516,810.352,973.338,810.352z"/>
	</g>
</g>
</svg>
