<?xml version="1.0" encoding="utf-8"?>
<!-- Generator: Adobe Illustrator 16.0.0, SVG Export Plug-In . SVG Version: 6.00 Build 0)  -->
<!DOCTYPE svg PUBLIC "-//W3C//DTD SVG 1.1//EN" "http://www.w3.org/Graphics/SVG/1.1/DTD/svg11.dtd">
<svg version="1.1" id="Layer_1" xmlns="http://www.w3.org/2000/svg" xmlns:xlink="http://www.w3.org/1999/xlink" x="0px" y="0px"
	 width="200px" height="200px" viewBox="815.5 688.026 200 200" enable-background="new 815.5 688.026 200 200"
	 xml:space="preserve">
<g>
	<g>
		<path fill="#444445" d="M949.18,846.61c-1.065,0-1.977-0.809-2.083-1.89c-0.458-4.665-2.202-11.886-4.647-13.337
			c-0.995-0.591-1.323-1.875-0.732-2.871c0.59-0.997,1.876-1.322,2.871-0.732c5.121,3.039,6.463,14.305,6.68,16.532
			c0.112,1.151-0.729,2.176-1.882,2.287C949.317,846.606,949.248,846.61,949.18,846.61z"/>
	</g>
	<g>
		<path fill="#444445" d="M949.18,846.61c-0.99,0-1.871-0.706-2.059-1.716c-2.68-14.553,6.143-16.695,6.519-16.78
			c1.139-0.257,2.249,0.46,2.501,1.588c0.25,1.118-0.444,2.226-1.552,2.493c-0.281,0.078-5.25,1.609-3.346,11.941
			c0.209,1.138-0.543,2.229-1.682,2.439C949.434,846.6,949.307,846.61,949.18,846.61z"/>
	</g>
	<g>
		<path fill="#444445" d="M918.151,851.911c-1.157,0-2.096-0.938-2.096-2.096v-17.067c0-1.157,0.938-2.095,2.096-2.095
			c1.156,0,2.095,0.938,2.095,2.095v17.067C920.246,850.973,919.308,851.911,918.151,851.911z"/>
	</g>
	<g>
		<path fill="#444445" d="M981.06,851.911c-1.156,0-2.095-0.938-2.095-2.096v-17.067c0-1.157,0.938-2.095,2.095-2.095
			s2.095,0.938,2.095,2.095v17.067C983.154,850.973,982.216,851.911,981.06,851.911z"/>
	</g>
	<g>
		<path fill="#444445" d="M911.146,853.425c-2.966,0-5.344-0.938-7.068-2.788c-2.994-3.215-2.695-7.982-2.681-8.185l1.468-14.185
			c-0.161-2.193-0.534-16.3,16.017-18.661l7.408-2.188c0.085-0.026,8.499-2.612,8.524-9.339v-9.412c0-1.157,0.938-2.096,2.095-2.096
			c1.157,0,2.096,0.938,2.096,2.096v9.42c-0.038,9.875-11.064,13.214-11.533,13.35l-7.552,2.231
			c-0.102,0.03-0.205,0.052-0.309,0.067c-13.972,1.917-12.627,13.785-12.563,14.288c0.021,0.159,0.022,0.32,0.006,0.48
			l-1.482,14.311l0,0c0.003,0-0.154,3.131,1.586,4.98c0.913,0.97,2.217,1.439,3.989,1.439l4.243-0.004
			c5.321-0.008,16.743-0.025,73.281-0.025c0.921-0.243,4.649-1.536,4.7-6.536l-1.472-14.197c-0.017-0.159-0.015-0.32,0.006-0.479
			c0.149-1.258,1.076-12.419-12.563-14.288l-9.484-1.812c-10.587-0.89-13.614-9.371-13.733-13.748l-0.001-10.961
			c0-1.156,0.938-2.095,2.095-2.095s2.095,0.938,2.095,2.095v10.903c0.033,0.849,0.604,8.903,9.991,9.639
			c0.076,0.006,0.154,0.017,0.229,0.03l9.487,1.813c16.611,2.276,16.229,16.467,16.068,18.667l1.462,14.113
			c0.007,0.071,0.011,0.144,0.011,0.216c0,7.259-5.396,10.231-8.247,10.79c-0.132,0.025-0.268,0.039-0.402,0.039
			c-56.738,0-68.188,0.018-73.515,0.026L911.146,853.425z"/>
	</g>
	<g>
		<path fill="#444445" d="M922.598,798.201c-0.119,0-0.236-0.009-0.354-0.029c-0.271-0.047-6.654-1.188-9.72-6.112
			c-1.748-2.808-2.06-6.18-0.922-10.021c0.904-3.053,2.902-3.51,4.013-3.51c1.596,0,3.088,0.918,4.403,1.729
			c0.111,0.068,0.235,0.145,0.363,0.223c-0.181-1.279-0.516-3.073-0.823-4.728c-2.07-11.11-5.529-29.671,2.988-39.364
			c1.865-2.947,4.267-3.573,5.966-3.573c0.943,0,1.834,0.194,2.616,0.457c0.269-2.802,1.46-6.872,6.452-8.803
			c3.006-1.162,6.193-1.751,9.473-1.751c8.89,0,17.473,4.402,24.165,12.397c0.488,0.586,0.917,1.269,1.278,2.037
			c9.375,9.458,4.873,28.565,2.444,38.881c-0.426,1.803-0.891,3.777-1.097,5.016c0.293-0.084,0.606-0.186,0.889-0.276
			c1.058-0.344,2.256-0.732,3.448-0.732c1.299,0,4.34,0.533,4.535,5.472c0.168,4.226-0.85,7.517-3.028,9.782
			c-2.715,2.826-6.18,2.907-6.566,2.907l0,0c-0.098,0-0.194-0.007-0.291-0.021c-6.723-0.942-11.141-4.568-12.837-10.389
			c-4.329,5.667-8.954,8.927-12.866,8.93c-4.835,0-9.474-4.65-12.6-8.711c-0.936,4.396-3.663,9.052-11.641,10.17
			C922.791,798.194,922.694,798.201,922.598,798.201z M961.308,780.038c0.184,0,0.369,0.025,0.554,0.075
			c0.901,0.247,1.53,1.062,1.541,1.997c0.076,7.024,3.293,10.917,9.828,11.896c0.463-0.034,2.147-0.249,3.466-1.646
			c1.337-1.413,1.955-3.662,1.833-6.682c-0.036-0.928-0.192-1.319-0.261-1.447c-0.024-0.002-0.049-0.002-0.087-0.002
			c-0.529,0-1.393,0.28-2.155,0.528c-1.004,0.324-2.041,0.661-3.054,0.661c-1.74,0-2.614-0.987-2.979-1.575
			c-0.832-1.334-0.48-3.046,0.87-8.772c2.263-9.608,6.477-27.494-1.564-35.188c-0.205-0.196-0.368-0.433-0.479-0.694
			c-0.236-0.553-0.511-1.02-0.816-1.386c-5.881-7.025-13.322-10.896-20.95-10.896c-2.761,0-5.439,0.494-7.962,1.471
			c-3.629,1.402-3.887,4.391-3.843,7.08c0.017,0.987,0.034,2.107-1.034,2.809c-0.341,0.224-0.74,0.342-1.148,0.342
			c-0.62,0-1.034-0.24-1.511-0.519c-0.605-0.352-1.866-1.085-3.043-1.085c-0.618,0-1.548,0.179-2.492,1.729
			c-0.066,0.111-0.145,0.215-0.231,0.312c-7.297,8.115-3.923,26.214-2.111,35.937c1.088,5.837,1.366,7.577,0.565,8.861
			c-0.589,0.945-1.558,1.488-2.658,1.488l0,0c-1.311,0-2.501-0.732-3.763-1.509c-0.549-0.338-1.513-0.93-2.021-1.073
			c-0.049,0.098-0.113,0.25-0.18,0.477c-0.78,2.635-0.629,4.855,0.45,6.601c1.755,2.84,5.509,3.898,6.589,4.15
			c6.833-1.082,8.152-5.093,8.171-12.053c0.003-0.942,0.633-1.766,1.541-2.014c0.908-0.249,1.871,0.139,2.354,0.947
			c4.095,6.873,9.192,11.673,12.397,11.673c3.242-0.002,8.222-4.618,12.393-11.485C959.904,780.409,960.589,780.038,961.308,780.038
			z"/>
	</g>
	<g>
		<path fill="#444445" d="M931.318,774.388c-1.01,0-1.898-0.73-2.065-1.758c-1.558-9.577-0.399-16.723,3.441-21.237
			c3.845-4.521,8.935-4.573,9.15-4.573c1.156,0,2.095,0.938,2.095,2.095c0,1.152-0.93,2.087-2.08,2.095
			c-0.179,0.005-3.483,0.116-6.029,3.163c-2.92,3.497-3.765,9.647-2.441,17.784c0.186,1.143-0.59,2.219-1.731,2.404
			C931.543,774.38,931.43,774.388,931.318,774.388z"/>
	</g>
	<g>
		<path fill="#444445" d="M961.731,774.388c-0.132,0-0.265-0.012-0.398-0.038c-1.136-0.218-1.881-1.316-1.661-2.452
			c1.023-5.318-3.522-9.762-4.948-11.004c-12.346-1.577-15.202-12.163-14.97-17.633c0.049-1.158,1.045-2.06,2.182-2.005
			c1.154,0.049,2.051,1.023,2.006,2.177c-0.019,0.51-0.287,12.159,11.847,13.365c0.386,0.038,0.755,0.183,1.063,0.419
			c0.354,0.27,8.623,6.699,6.935,15.472C963.594,773.69,962.715,774.388,961.731,774.388z"/>
	</g>
	<g>
		<path fill="#444445" d="M981.06,851.911c-1.156,0-2.095-0.938-2.095-2.096v-6.305c-13.485-8.667-28.578-2.932-28.732-2.871
			c-0.475,0.184-1.005,0.192-1.485,0.018c-16.278-5.956-29.35,2.039-29.48,2.121c-0.979,0.615-2.271,0.32-2.888-0.659
			c-0.615-0.978-0.324-2.268,0.652-2.885c0.591-0.373,14.497-8.966,32.434-2.77c3.595-1.216,18.86-5.477,32.791,4.206
			c0.563,0.392,0.898,1.034,0.898,1.72v7.425C983.154,850.973,982.216,851.911,981.06,851.911z"/>
	</g>
	<g>
		<path fill="#444445" d="M918.035,806.97c-0.205,0-0.413-0.029-0.621-0.094l-5.368-1.664c-1.104-0.342-1.723-1.516-1.38-2.621
			c0.342-1.104,1.508-1.725,2.621-1.381l5.368,1.664c1.105,0.343,1.723,1.516,1.381,2.622
			C919.758,806.395,918.93,806.97,918.035,806.97z"/>
	</g>
	<g>
		<path fill="#444445" d="M898.445,854.201h-55.152c-2.965,0-5.342-0.938-7.067-2.788c-2.808-3.012-2.723-7.39-2.688-8.095v-15.629
			c-0.664-6.721,1.839-19.728,16.031-21.757l13.359-3.648c1.123-0.302,2.269,0.353,2.574,1.469c0.304,1.117-0.354,2.268-1.47,2.573
			l-13.488,3.685c-0.089,0.022-0.178,0.042-0.268,0.054c-14.016,1.922-12.627,16.673-12.561,17.299
			c0.007,0.073,0.011,0.146,0.011,0.22v15.791c0,0.049-0.001,0.099-0.005,0.147c-0.001,0.021-0.171,3.186,1.583,5.049
			c0.911,0.97,2.217,1.44,3.988,1.44h55.152c1.156,0,2.095,0.938,2.095,2.095C900.54,853.263,899.602,854.201,898.445,854.201z"/>
	</g>
	<g>
		<path fill="#444445" d="M872.718,813.006c-0.161,0-0.323-0.019-0.486-0.058c-1.11-0.264-10.851-2.781-11-9.692
			c-0.105-4.945,4.843-7.586,7.782-8.366c0.973-0.255,1.963,0.205,2.404,1.076c0.845,0.775,5.002,2.03,9.04,2.722
			c0.892,0.152,1.586,0.861,1.719,1.758c0.134,0.896-0.325,1.775-1.135,2.181c-3.617,1.809-5.782,7.009-6.311,8.86
			C874.469,812.402,873.633,813.006,872.718,813.006z M868.994,799.342c-1.393,0.594-3.615,1.853-3.573,3.824
			c0.052,2.444,3.523,4.247,6.003,5.154c0.708-1.728,1.965-4.268,3.894-6.42C872.41,801.168,870.297,800.312,868.994,799.342z"/>
	</g>
	<g>
		<path fill="#444445" d="M902.53,813.57c-0.914,0-1.75-0.602-2.012-1.517c-0.038-0.131-2.004-6.709-6.311-8.864
			c-0.766-0.384-1.221-1.192-1.151-2.045s0.65-1.576,1.468-1.83c3.906-1.211,7.868-2.989,8.563-3.837
			c0.216-0.47,0.598-0.846,1.075-1.051c0.51-0.222,1.088-0.229,1.607-0.022c0.856,0.343,8.37,3.518,8.245,9.417
			c-0.148,6.91-9.889,9.429-10.998,9.691C902.854,813.553,902.691,813.57,902.53,813.57z M899.524,802.026
			c2.16,2.237,3.543,5.012,4.3,6.858c2.479-0.906,5.949-2.71,6.002-5.154c0.043-2.017-2.577-3.856-4.341-4.819
			C904.057,800.08,901.843,801.137,899.524,802.026z"/>
	</g>
	<g>
		<path fill="#444445" d="M888.744,854.201c-1.157,0-2.096-0.938-2.096-2.096v-26.052c-0.341-5.202-2.402-19.866-7.741-23.582
			c-0.949-0.661-1.183-1.967-0.522-2.917c0.662-0.949,1.969-1.184,2.916-0.522c7.946,5.53,9.395,24.718,9.534,26.888l0.004,26.186
			C890.839,853.263,889.9,854.201,888.744,854.201z"/>
	</g>
	<g>
		<path fill="#444445" d="M888.742,828.148c-1.107,0-2.033-0.867-2.091-1.987c-0.669-12.938,6.376-25.367,6.677-25.889
			c0.575-1.003,1.854-1.35,2.858-0.773c1.003,0.575,1.351,1.854,0.774,2.858c-0.066,0.117-6.729,11.904-6.125,23.589
			c0.061,1.155-0.828,2.14-1.984,2.2C888.814,828.147,888.778,828.148,888.742,828.148z"/>
	</g>
	<g>
		<path fill="#444445" d="M853.268,852.72c-1.157,0-2.096-0.938-2.096-2.095v-7.427c0-1.156,0.938-2.095,2.096-2.095
			c1.156,0,2.095,0.938,2.095,2.095v7.427C855.362,851.781,854.424,852.72,853.268,852.72z"/>
	</g>
	<g>
		<path fill="#444445" d="M873.508,800.989c-1.156,0-2.095-0.938-2.095-2.095v-13.867c0-1.156,0.938-2.095,2.095-2.095
			s2.095,0.938,2.095,2.095v13.867C875.603,800.051,874.664,800.989,873.508,800.989z"/>
	</g>
	<g>
		<path fill="#444445" d="M900.745,800.989c-1.157,0-2.096-0.938-2.096-2.095v-15.351c0-1.157,0.938-2.095,2.096-2.095
			c1.156,0,2.095,0.938,2.095,2.095v15.351C902.84,800.051,901.901,800.989,900.745,800.989z"/>
	</g>
	<g>
		<path fill="#444445" d="M886.692,797.528c-0.001,0-0.004,0-0.004,0c-9.473,0-21.487-19.361-22.808-32.83
			c-5.149-8.045-4.347-23.147-2.359-26.502c0.456-0.771-0.011-3.44-0.262-4.876c-0.465-2.663-0.867-4.964,1.062-6.016
			c0.368-0.199,0.775-0.3,1.215-0.3c1.019,0,2.136,0.561,3.758,1.58c-0.036-1.107,0.215-2.192,0.755-3.191
			c1.185-2.185,3.59-3.542,6.282-3.542c2.256,0,4.5,0.914,6.488,2.646c1.987,1.73,3.939,2.611,5.423,2.932
			c0.011-0.054,0.022-0.108,0.034-0.162c0.437-1.841,2.482-3.283,4.658-3.283c1.229,0,3.577,0.466,5.489,3.585
			c0.951,1.549,1.612,1.606,3.38,1.762c2.384,0.208,5.65,0.494,9.499,5.113c5.391,6.468,1.268,22.013,0.366,25.129
			c0.08,0.956,0.12,1.816,0.12,2.621C909.789,775.617,896.887,797.522,886.692,797.528z M865.337,732.306
			c0.018,0.102,0.034,0.199,0.05,0.294c0.463,2.639,0.985,5.631-0.262,7.733c-1.145,1.933-2.085,15.84,2.517,22.453
			c0.213,0.306,0.341,0.665,0.368,1.035c1.001,13.027,12.441,29.514,18.679,29.517c6.678-0.003,18.91-18.313,18.91-31.144
			c0-0.785-0.045-1.647-0.138-2.636c-0.019-0.204-0.008-0.408,0.031-0.608c0.016-0.077,0.036-0.154,0.061-0.23
			c1.896-6.333,3.715-17.773,0.531-21.594c-2.731-3.278-4.633-3.445-6.646-3.621c-2.019-0.178-4.531-0.396-6.585-3.745
			c-0.578-0.942-1.229-1.51-1.802-1.578c0.208,0.503,0.222,1.021,0.122,1.444c-0.151,0.644-0.816,2.139-3.694,2.139
			c-1.411,0.001-5.153-0.399-9.412-4.108c-1.533-1.335-2.878-1.614-3.736-1.614c-1.152,0-2.146,0.516-2.597,1.346
			c-0.426,0.787-0.299,1.774,0.359,2.781c0.637,0.975,1.597,2.446,0.838,3.849c-0.402,0.743-1.16,1.187-2.029,1.187
			c-1.086,0-2.141-0.661-4.424-2.157C866.149,732.831,865.747,732.566,865.337,732.306z"/>
	</g>
	<g>
		<path fill="#444445" d="M868.856,759.427c-0.233,0-0.47-0.038-0.703-0.121c-1.09-0.389-1.659-1.588-1.271-2.677
			c0.033-0.091,0.804-2.248,1.727-4.445c0.384-0.963,0.297-4.894,0.094-7.393c-0.821-1.193-0.679-2.604-0.273-3.501
			c0.475-1.046,1.75-1.551,2.799-1.093c0.667,0.294,1.104,0.577,1.398,2.129c0.671-0.021,1.86-0.104,3.955-0.721
			c11.878-3.492,22.678,0.537,25.865,6.276c2.769,4.985,1.86,9.07,1.82,9.24c-0.263,1.127-1.389,1.828-2.517,1.564
			c-1.119-0.262-1.817-1.376-1.568-2.496c0.031-0.156,0.526-2.807-1.399-6.273c-1.688-3.039-9.839-7.582-21.021-4.291
			c-1.429,0.42-3.151,0.846-4.757,0.888c0.003,0.078,0.007,0.155,0.01,0.234c0.148,3.479-0.036,5.853-0.545,7.06
			c-0.877,2.09-1.634,4.207-1.641,4.229C870.524,758.893,869.718,759.427,868.856,759.427z"/>
	</g>
	<g>
		<path fill="#444445" d="M865.049,801.486c-0.554,0-1.107-0.219-1.52-0.652c-0.797-0.839-0.763-2.165,0.076-2.963
			c3.633-3.45,8.521-4.254,8.728-4.286c1.137-0.182,2.216,0.6,2.396,1.743c0.18,1.14-0.598,2.212-1.738,2.395
			c-0.086,0.014-3.85,0.671-6.498,3.188C866.087,801.295,865.567,801.486,865.049,801.486z"/>
	</g>
	<g>
		<path fill="#444445" d="M908.395,800.356c-0.451,0-0.906-0.146-1.29-0.444c-0.554-0.397-4.209-2.241-7.269-3.714
			c-1.043-0.502-1.48-1.754-0.979-2.796c0.503-1.045,1.758-1.479,2.796-0.979c2.097,1.009,7.074,3.438,8.034,4.188
			c0.911,0.713,1.071,2.031,0.359,2.942C909.633,800.081,909.017,800.356,908.395,800.356z"/>
	</g>
	<g>
		<path fill="#444445" d="M890.895,836.902c-1.846,0-3.347-1.502-3.347-3.347c0-1.846,1.501-3.348,3.347-3.348
			c1.847,0,3.35,1.502,3.35,3.348C894.244,835.4,892.741,836.902,890.895,836.902z M890.895,832.713c-0.464,0-0.84,0.377-0.84,0.843
			c0,0.465,0.376,0.843,0.84,0.843c0.465,0,0.843-0.378,0.843-0.843C891.737,833.09,891.359,832.713,890.895,832.713z"/>
	</g>
	<g>
		<path fill="#444445" d="M892.149,820.067c-1.847,0-3.35-1.501-3.35-3.347s1.503-3.347,3.35-3.347s3.349,1.501,3.349,3.347
			S893.996,820.067,892.149,820.067z M892.149,815.878c-0.464,0-0.842,0.378-0.842,0.843s0.378,0.843,0.842,0.843
			s0.84-0.378,0.84-0.843S892.613,815.878,892.149,815.878z"/>
	</g>
	<g>
		<path fill="#444445" d="M958.955,829.634c-0.559,0-1.104-0.237-1.494-0.613c-0.377-0.392-0.602-0.936-0.602-1.481
			c0-0.558,0.225-1.088,0.602-1.479c0.796-0.782,2.192-0.782,2.975-0.014c0.392,0.39,0.614,0.936,0.614,1.493
			c0,0.546-0.223,1.09-0.614,1.481C960.045,829.396,959.5,829.634,958.955,829.634z"/>
	</g>
</g>
</svg>
