<?xml version="1.0" encoding="utf-8"?>
<!-- Generator: Adobe Illustrator 16.0.0, SVG Export Plug-In . SVG Version: 6.00 Build 0)  -->
<!DOCTYPE svg PUBLIC "-//W3C//DTD SVG 1.1//EN" "http://www.w3.org/Graphics/SVG/1.1/DTD/svg11.dtd">
<svg version="1.1" id="Layer_1" xmlns="http://www.w3.org/2000/svg" xmlns:xlink="http://www.w3.org/1999/xlink" x="0px" y="0px"
	 width="1920px" height="1080px" viewBox="0 0 1920 1080" enable-background="new 0 0 1920 1080" xml:space="preserve">
<path fill="#9CCC65" d="M1938.246,936.611c0,0-197.009-11.449-262.488-8.066c-41.105,2.123-139.976,8.213-179.423,15.789
	c-34.604,6.646-82.788,31.127-116.23,39.814c-24.22,6.292-74.987,16.363-96.429,25.842c-19.004,8.402-46.438,32.881-63.23,42.977
	c-14.607,8.784-61.648,33.033-61.648,33.033h768.605L1938.246,936.611z"/>
<g>
	<polygon fill="#C33A32" points="1722.993,906.771 1707.933,680.128 1660.597,680.128 1645.533,906.771 	"/>
	<path fill="#FFFFFF" d="M1710.505,718.858h-52.483l-2.575,38.73h57.633L1710.505,718.858z M1715.463,793.449h-62.398l-2.573,38.73
		h67.546L1715.463,793.449z M1720.421,868.042h-72.312l-2.575,38.729h77.46L1720.421,868.042z"/>
	<rect x="1653.742" y="643.551" fill="#FFFFFF" width="63.555" height="36.577"/>
	<g>
		<rect x="1641.3" y="675.108" fill="#7D868C" width="88.438" height="5.02"/>
		<rect x="1641.3" y="661.392" fill="#7D868C" width="88.438" height="5.021"/>
		<g>
			
				<line fill="none" stroke="#7D868C" stroke-width="3" stroke-miterlimit="10" x1="1644.367" y1="663.901" x2="1644.367" y2="677.619"/>
			
				<line fill="none" stroke="#7D868C" stroke-width="3" stroke-miterlimit="10" x1="1658.084" y1="663.901" x2="1658.084" y2="677.619"/>
			
				<line fill="none" stroke="#7D868C" stroke-width="3" stroke-miterlimit="10" x1="1671.802" y1="663.901" x2="1671.802" y2="677.619"/>
			
				<line fill="none" stroke="#7D868C" stroke-width="3" stroke-miterlimit="10" x1="1685.519" y1="663.901" x2="1685.519" y2="677.619"/>
			
				<line fill="none" stroke="#7D868C" stroke-width="3" stroke-miterlimit="10" x1="1699.235" y1="663.901" x2="1699.235" y2="677.619"/>
			
				<line fill="none" stroke="#7D868C" stroke-width="3" stroke-miterlimit="10" x1="1712.952" y1="663.901" x2="1712.952" y2="677.619"/>
			
				<line fill="none" stroke="#7D868C" stroke-width="3" stroke-miterlimit="10" x1="1726.669" y1="663.901" x2="1726.669" y2="677.619"/>
		</g>
	</g>
	<g>
		<polygon fill="#7D868C" points="1739.064,643.551 1685.519,617.192 1631.973,643.551 		"/>
	</g>
	<polygon fill="#5C6670" points="1631.973,643.551 1685.519,643.551 1685.519,617.192 	"/>
	<rect x="1658.084" y="649.827" fill="#5C6670" width="15.062" height="6.454"/>
	<rect x="1677.987" y="649.827" fill="#5C6670" width="15.062" height="6.454"/>
	<rect x="1697.892" y="649.827" fill="#5C6670" width="15.061" height="6.454"/>
	<g>
		<path fill="#5C6670" d="M1685.519,727.78c-2.77,0-5.016,2.246-5.016,5.016v13.722h10.031v-13.722
			C1690.534,730.026,1688.288,727.78,1685.519,727.78z"/>
		<path fill="#333E48" d="M1685.519,727.78c-2.77,0-5.016,2.246-5.016,5.016v1.884c0-2.771,2.246-5.018,5.016-5.018
			s5.016,2.247,5.016,5.018v-1.884C1690.534,730.026,1688.288,727.78,1685.519,727.78z"/>
	</g>
	<g>
		<path fill="#5C6670" d="M1685.519,803.447c-2.77,0-5.016,2.246-5.016,5.016v13.72h10.031v-13.72
			C1690.534,805.693,1688.288,803.447,1685.519,803.447z"/>
		<path fill="#333E48" d="M1685.519,803.447c-2.77,0-5.016,2.246-5.016,5.016v1.882c0-2.77,2.246-5.015,5.016-5.015
			s5.016,2.245,5.016,5.015v-1.882C1690.534,805.693,1688.288,803.447,1685.519,803.447z"/>
	</g>
	<rect x="1631.347" y="906.771" fill="#C33A32" width="105.834" height="11.475"/>
	<rect x="1619.468" y="918.245" fill="#5C6670" width="129.591" height="14.054"/>
</g>
<g>
	<path fill="none" d="M1315.944,1001.616c-0.001,0.093-0.009,0.185-0.011,0.276h0.021
		C1315.953,1001.801,1315.945,1001.709,1315.944,1001.616z"/>
	<path fill="none" d="M1201.944,1001.616c-0.001,0.093-0.009,0.185-0.011,0.276h0.021
		C1201.953,1001.801,1201.945,1001.709,1201.944,1001.616z"/>
	<path fill="none" d="M1258.944,1001.616c-0.001,0.093-0.009,0.185-0.011,0.276h0.021
		C1258.953,1001.801,1258.945,1001.709,1258.944,1001.616z"/>
	<path fill="none" d="M1372.944,1001.616c-0.001,0.093-0.009,0.185-0.011,0.276h0.021
		C1372.953,1001.801,1372.945,1001.709,1372.944,1001.616z"/>
	<path fill="none" d="M1087.944,1001.616c-0.001,0.093-0.009,0.185-0.011,0.276h0.021
		C1087.953,1001.801,1087.945,1001.709,1087.944,1001.616z"/>
	<path fill="none" d="M1144.944,1001.616c-0.001,0.093-0.009,0.185-0.011,0.276h0.021
		C1144.953,1001.801,1144.945,1001.709,1144.944,1001.616z"/>
	<path fill="none" d="M973.944,1001.616c-0.001,0.093-0.009,0.185-0.011,0.276h0.021
		C973.953,1001.801,973.945,1001.709,973.944,1001.616z"/>
	<path fill="none" d="M1429.944,1001.616c-0.001,0.093-0.009,0.185-0.011,0.276h0.021
		C1429.953,1001.801,1429.945,1001.709,1429.944,1001.616z"/>
	<path fill="none" d="M1030.944,1001.616c-0.001,0.093-0.009,0.185-0.011,0.276h0.021
		C1030.953,1001.801,1030.945,1001.709,1030.944,1001.616z"/>
	<path fill="none" d="M1714.944,1001.616c-0.001,0.093-0.009,0.185-0.011,0.276h0.021
		C1714.953,1001.801,1714.945,1001.709,1714.944,1001.616z"/>
	<path fill="none" d="M1771.944,1001.616c-0.001,0.093-0.009,0.185-0.011,0.276h0.021
		C1771.953,1001.801,1771.945,1001.709,1771.944,1001.616z"/>
	<path fill="none" d="M1828.944,1001.616c-0.001,0.093-0.009,0.185-0.011,0.276h0.021
		C1828.953,1001.801,1828.945,1001.709,1828.944,1001.616z"/>
	<path fill="none" d="M1657.944,1001.616c-0.001,0.093-0.009,0.185-0.011,0.276h0.021
		C1657.953,1001.801,1657.945,1001.709,1657.944,1001.616z"/>
	<path fill="none" d="M1543.944,1001.616c-0.001,0.093-0.009,0.185-0.011,0.276h0.021
		C1543.953,1001.801,1543.945,1001.709,1543.944,1001.616z"/>
	<path fill="none" d="M1486.944,1001.616c-0.001,0.093-0.009,0.185-0.011,0.276h0.021
		C1486.953,1001.801,1486.945,1001.709,1486.944,1001.616z"/>
	<path fill="none" d="M1600.944,1001.616c-0.001,0.093-0.009,0.185-0.011,0.276h0.021
		C1600.953,1001.801,1600.945,1001.709,1600.944,1001.616z"/>
	<path fill="none" d="M802.944,1001.616c-0.001,0.093-0.009,0.185-0.011,0.276h0.021
		C802.953,1001.801,802.945,1001.709,802.944,1001.616z"/>
	<path fill="none" d="M289.944,1001.616c0,0.093-0.009,0.185-0.011,0.276h0.022C289.953,1001.801,289.945,1001.709,289.944,1001.616
		z"/>
	<path fill="none" d="M346.944,1001.616c0,0.093-0.009,0.185-0.011,0.276h0.022C346.953,1001.801,346.945,1001.709,346.944,1001.616
		z"/>
	<path fill="none" d="M232.944,1001.616c0,0.093-0.009,0.185-0.011,0.276h0.022C232.953,1001.801,232.945,1001.709,232.944,1001.616
		z"/>
	<path fill="none" d="M403.944,1001.616c0,0.093-0.009,0.185-0.011,0.276h0.022C403.953,1001.801,403.945,1001.709,403.944,1001.616
		z"/>
	<path fill="none" d="M1885.944,1001.616c-0.001,0.093-0.009,0.185-0.011,0.276h0.021
		C1885.953,1001.801,1885.945,1001.709,1885.944,1001.616z"/>
	<path fill="none" d="M460.944,1001.616c-0.001,0.093-0.009,0.185-0.011,0.276h0.021
		C460.953,1001.801,460.945,1001.709,460.944,1001.616z"/>
	<path fill="none" d="M118.944,1001.616c0,0.093-0.009,0.185-0.011,0.276h0.022C118.953,1001.801,118.945,1001.709,118.944,1001.616
		z"/>
	<path fill="none" d="M175.944,1001.616c0,0.093-0.009,0.185-0.011,0.276h0.022C175.953,1001.801,175.945,1001.709,175.944,1001.616
		z"/>
	<path fill="none" d="M916.944,1001.616c-0.001,0.093-0.009,0.185-0.011,0.276h0.021
		C916.953,1001.801,916.945,1001.709,916.944,1001.616z"/>
	<path fill="none" d="M745.944,1001.616c-0.001,0.093-0.009,0.185-0.011,0.276h0.021
		C745.953,1001.801,745.945,1001.709,745.944,1001.616z"/>
	<path fill="none" d="M4.944,1001.616c0,0.093-0.009,0.185-0.011,0.276h0.022C4.953,1001.801,4.945,1001.709,4.944,1001.616z"/>
	<path fill="none" d="M517.944,1001.616c-0.001,0.093-0.009,0.185-0.011,0.276h0.021
		C517.953,1001.801,517.945,1001.709,517.944,1001.616z"/>
	<path fill="none" d="M859.944,1001.616c-0.001,0.093-0.009,0.185-0.011,0.276h0.021
		C859.953,1001.801,859.945,1001.709,859.944,1001.616z"/>
	<path fill="none" d="M574.944,1001.616c-0.001,0.093-0.009,0.185-0.011,0.276h0.021
		C574.953,1001.801,574.945,1001.709,574.944,1001.616z"/>
	<path fill="none" d="M688.944,1001.616c-0.001,0.093-0.009,0.185-0.011,0.276h0.021
		C688.953,1001.801,688.945,1001.709,688.944,1001.616z"/>
	<path fill="none" d="M631.944,1001.616c-0.001,0.093-0.009,0.185-0.011,0.276h0.021
		C631.953,1001.801,631.945,1001.709,631.944,1001.616z"/>
	<path fill="none" d="M61.944,1001.616c0,0.093-0.009,0.185-0.011,0.276h0.022C61.953,1001.801,61.945,1001.709,61.944,1001.616z"/>
	<path fill="#4FC3F7" d="M1885.955,1002h-0.021c-0.268,11-12.916,20.164-28.489,20.164s-28.222-9.164-28.489-20.164h-0.021
		c-0.268,11-12.916,20.164-28.489,20.164s-28.222-9.164-28.489-20.164h-0.021c-0.268,11-12.916,20.164-28.489,20.164
		s-28.222-9.164-28.489-20.164h-0.021c-0.268,11-12.916,20.164-28.489,20.164s-28.222-9.164-28.489-20.164h-0.021
		c-0.268,11-12.916,20.164-28.489,20.164s-28.222-9.164-28.489-20.164h-0.021c-0.268,11-12.916,20.164-28.489,20.164
		s-28.222-9.164-28.489-20.164h-0.021c-0.268,11-12.916,20.164-28.489,20.164s-28.222-9.164-28.489-20.164h-0.021
		c-0.268,11-12.916,20.164-28.489,20.164s-28.222-9.164-28.489-20.164h-0.021c-0.268,11-12.916,20.164-28.489,20.164
		s-28.222-9.164-28.489-20.164h-0.021c-0.268,11-12.916,20.164-28.489,20.164s-28.222-9.164-28.489-20.164h-0.021
		c-0.268,11-12.916,20.164-28.489,20.164s-28.222-9.164-28.489-20.164h-0.021c-0.268,11-12.916,20.164-28.489,20.164
		s-28.222-9.164-28.489-20.164h-0.021c-0.268,11-12.916,20.164-28.489,20.164s-28.222-9.164-28.489-20.164h-0.021
		c-0.268,11-12.916,20.164-28.489,20.164s-28.222-9.164-28.489-20.164h-0.021c-0.268,11-12.916,20.164-28.489,20.164
		s-28.222-9.164-28.489-20.164h-0.021c-0.268,11-12.916,20.164-28.489,20.164S974.224,1013,973.955,1002h-0.021
		c-0.269,11-12.916,20.164-28.489,20.164S917.223,1013,916.955,1002h-0.021c-0.268,11-12.916,20.164-28.489,20.164
		S860.223,1013,859.955,1002h-0.021c-0.268,11-12.916,20.164-28.489,20.164S803.223,1013,802.955,1002h-0.021
		c-0.268,11-12.916,20.164-28.489,20.164S746.223,1013,745.955,1002h-0.021c-0.268,11-12.916,20.164-28.489,20.164
		S689.223,1013,688.955,1002h-0.021c-0.268,11-12.916,20.164-28.489,20.164S632.223,1013,631.955,1002h-0.021
		c-0.268,11-12.916,20.164-28.489,20.164S575.223,1013,574.955,1002h-0.021c-0.268,11-12.916,20.164-28.489,20.164
		S518.223,1013,517.955,1002h-0.021c-0.268,11-12.916,20.164-28.489,20.164S461.223,1013,460.955,1002h-0.021
		c-0.268,11-12.916,20.164-28.489,20.164S404.223,1013,403.956,1002h-0.022c-0.268,11-12.916,20.164-28.489,20.164
		S347.223,1013,346.956,1002h-0.022c-0.268,11-12.916,20.164-28.489,20.164S290.223,1013,289.956,1002h-0.022
		c-0.268,11-12.916,20.164-28.489,20.164S233.223,1013,232.956,1002h-0.022c-0.268,11-12.916,20.164-28.489,20.164
		S176.223,1013,175.956,1002h-0.022c-0.268,11-12.916,20.164-28.489,20.164S119.223,1013,118.956,1002h-0.022
		c-0.268,11-12.916,20.164-28.489,20.164S62.223,1013,61.956,1002h-0.022c-0.268,11-12.916,20.164-28.489,20.164
		S5.223,1013,4.956,1002H4.933c-0.129,5-3.124,10.134-7.933,13.741V1264h1926v-242.885c-2.701,0.61-5.574,0.996-8.556,0.996
		C1898.871,1022.111,1886.223,1013,1885.955,1002z"/>
</g>
</svg>
