<?xml version="1.0" encoding="utf-8"?>
<!-- Generator: Adobe Illustrator 16.0.0, SVG Export Plug-In . SVG Version: 6.00 Build 0)  -->
<!DOCTYPE svg PUBLIC "-//W3C//DTD SVG 1.1//EN" "http://www.w3.org/Graphics/SVG/1.1/DTD/svg11.dtd">
<svg version="1.1" id="Layer_1" xmlns="http://www.w3.org/2000/svg" xmlns:xlink="http://www.w3.org/1999/xlink" x="0px" y="0px"
	 width="612px" height="235.535px" viewBox="0 0 612 235.535" enable-background="new 0 0 612 235.535" xml:space="preserve">
<rect x="-18" y="310.247" fill="#546E7A" width="645" height="148"/>
<polygon fill="#424242" points="217.438,231.622 217.373,236.247 221.295,236.247 221.25,231.435 "/>
<polygon fill="#7E94A8" points="215.779,103.247 219.333,103.247 221.133,231.743 217.618,231.444 "/>
<polygon fill="#90A4AE" points="40.606,339.732 219.58,343.898 218.243,100.145 43.696,166.386 "/>
<polygon fill="#546E7A" points="-16.415,338.506 -16.118,189.198 44,163.946 44,339.812 "/>
<polygon fill="#78909C" points="43.793,255.64 153.874,250.489 153.629,239.212 43.712,246.159 "/>
<polygon fill="#78909C" points="218.129,100.232 223.706,343.779 656.225,317.584 648.379,168.661 "/>
<polygon fill="#6A8993" points="218.129,100.232 -16.272,189.198 1.379,155.609 217.377,81.139 "/>
<polygon fill="#546E7A" points="217.019,100.656 647,168.661 647,154.63 216.342,81.139 "/>
<polygon fill="#A4C2E4" points="98.466,295.725 121.634,295.355 122.553,257.599 98.221,258.826 "/>
<polygon fill="#A4C2E4" points="98.466,299.523 124.455,298.79 127.151,342.428 98.221,341.284 "/>
<polygon fill="#A4C2E4" points="116.854,239.247 154.12,235.919 153.139,128.344 116.037,142.565 115.382,239.247 "/>
<polygon fill="#B26518" points="99.366,60.32 680.578,156.755 676.818,138.448 89.272,29.716 "/>
<polygon fill="#EDB985" points="-56.235,101.673 -4.587,108.374 -14.393,80.589 "/>
<polygon fill="#EDB985" points="-8.51,77.974 50.168,86.472 37.909,54.437 "/>
<polygon fill="#EDB985" points="44.774,51.495 91.355,59.014 81.55,30.083 "/>
<polygon fill="#EDB985" points="201.86,75.616 680.578,156.755 677.31,159.696 201.026,79.28 "/>
<polygon fill="#EDB985" points="48.043,83.203 110.806,91.375 116.363,88.76 54.254,80.587 "/>
<polyline fill="#F7931E" points="524.076,150.124 485.954,159.901 485.464,138.938 527.989,125.759 "/>
<polyline fill="#F7931E" points="297.25,116.747 255,131.397 255,105.105 300.485,87.759 "/>
<polygon fill="#EF7F11" points="278.42,114.236 287.246,116.442 291.66,86.289 281.362,84.082 "/>
<polygon fill="#EF7F11" points="513.035,149.538 519.654,150.274 523.332,127.474 516.713,125.268 "/>
<polygon fill="#EF7F11" points="524.076,150.124 532.005,152.995 535.275,127.825 527.989,125.759 "/>
<polygon fill="#EF7F11" points="680.127,174.61 685.154,176.204 688.342,156.345 683.07,155.12 "/>
<polyline fill="#F7931E" points="278.436,114.328 238,128.945 238,102.653 281.388,84.082 "/>
<polyline fill="#F7931E" points="512.8,149.633 474.678,159.409 474.187,138.448 516.713,125.268 "/>
<polyline fill="#F7931E" points="680.127,174.61 643.844,183.069 645.068,165.171 683.07,155.12 "/>
<path fill="#F7931E" d="M237.967,128.945"/>
<polyline fill="#EDB985" points="247.121,130.603 287.246,116.442 278.418,114.328 237.967,128.945 247.121,130.603 "/>
<polyline fill="#EDB985" points="483.137,161.616 521.629,150.767 512.8,148.651 474.678,159.409 483.137,161.616 "/>
<polyline fill="#EDB985" points="493.923,163.087 532.005,152.995 523.587,150.124 485.464,160.88 493.923,163.087 "/>
<polyline fill="#EDB985" points="648.072,185.645 685.154,176.204 680.312,174.487 644.027,183.069 647.275,185.09 "/>
<polyline fill="#EDB985" points="265.753,133.054 305.878,118.894 297.051,116.781 255,131.397 265.753,133.054 "/>
<polygon fill="#EF7F11" points="297.051,116.781 305.878,118.894 310.781,89.23 300.485,87.759 "/>
<polyline fill="#F7931E" points="186.316,102.071 -86.146,211.671 -86.637,189.279 190.167,69.128 "/>
<polyline fill="#EDB985" points="-74.541,212.162 198.254,103.204 187.225,101.244 -86.146,211.671 -74.541,212.162 "/>
<polygon fill="#EF7F11" points="185.752,101.733 198.254,103.204 202.667,71.579 190.167,69.128 "/>
<polygon fill="#EF7F11" points="-137.631,170.32 -133.708,168.358 -141.554,144.822 -146.458,146.294 "/>
<polygon fill="#EF7F11" points="-97.914,150.706 -93.011,147.765 -100.856,124.719 -105.759,126.189 "/>
<polygon fill="#EF7F11" points="-52.312,130.112 -46.429,127.171 -56.235,101.673 -62.119,104.125 "/>
<polygon fill="#EF7F11" points="-4.587,108.374 0.643,105.759 -8.51,77.974 -14.393,80.589 "/>
<polygon fill="#EF7F11" points="48.043,83.203 54.254,80.587 44.774,51.495 37.909,54.437 "/>
<polygon fill="#EF7F11" points="92.5,64.244 99.366,60.32 89.272,29.716 83.021,32.863 "/>
<polygon fill="#EF7F11" points="102,6.385 102,6.414 102,6.385 -160.505,141.063 -159.691,154.14 100.766,24.195 100.714,24.445 
	693,140.409 693,126.353 "/>
<polygon fill="#EDB985" points="-133.708,168.358 -77.81,172.445 -82.387,174.405 -137.631,170.32 "/>
<polygon fill="#EDB985" points="-93.011,147.765 -33.517,153.158 -39.074,155.446 -97.914,150.706 "/>
<polygon fill="#EDB985" points="-46.919,127.171 14.128,132.563 8.612,135.14 -52.312,130.112 "/>
<polygon fill="#EDB985" points="0.643,105.759 61.445,112.296 55.234,115.238 -4.587,108.374 "/>
<polygon fill="#EDB985" points="99.366,60.32 159.187,69.474 150.688,73.396 92.5,64.244 "/>
<polygon fill="#B26518" points="-133.708,168.358 -77.81,172.445 -39.074,155.446 -97.914,150.706 -98.731,148.909 
	-141.554,144.822 "/>
<polygon fill="#B26518" points="-102.164,123.085 -93.011,147.765 -33.517,153.158 10.123,135.344 "/>
<polygon fill="#B26518" points="-46.429,127.171 14.128,132.563 54.418,115.106 -54.928,101.674 -55.91,102.328 "/>
<polygon fill="#B26518" points="0.643,105.759 60.954,112.462 108.893,91.066 49.024,83.274 50.168,86.472 -7.038,78.138 
	-8.346,78.628 "/>
<polygon fill="#B26518" points="54.254,80.587 115.137,88.679 150.688,73.396 92.5,64.244 91.355,59.014 44.774,51.495 "/>
<polyline fill="#EDB985" points="-141.554,144.332 -98.485,148.419 -105.759,125.699 -141.554,144.332 "/>
<polyline fill="#EDB985" points="-99.385,123.247 -52.803,127.906 -61.139,104.369 -99.385,123.247 "/>
<polygon fill="#EDB985" points="89.272,29.716 683.684,141.881 686.626,138.938 100.672,24.445 "/>
<polygon fill="#A4C2E4" points="314.458,117.739 307.758,116.71 307.268,119.283 270.329,133.349 271.638,239.36 316.747,241.419 
	"/>
<polygon fill="#A4C2E4" points="317.076,118.181 358.263,124.245 360.879,240.147 319.362,238.8 "/>
<polygon fill="#A4C2E4" points="360.226,124.392 363.166,236.515 401.414,238.15 398.798,130.603 "/>
<polygon fill="#A4C2E4" points="401.739,131.257 404.354,237.822 439.659,239.783 437.043,136.487 "/>
<polygon fill="#A4C2E4" points="441.948,239.131 474.635,240.438 471.041,142.044 439.332,136.813 "/>
<polygon fill="#A4C2E4" points="478.233,240.438 496.213,241.092 493.599,166.562 475.292,164.273 "/>
<polygon fill="#A4C2E4" points="498.337,240.929 524.814,241.909 521.137,156.101 495.885,162.965 "/>
<polygon fill="#A4C2E4" points="526.776,242.072 552.11,242.728 548.84,153.158 532.169,150.216 532.005,152.995 523.67,155.12 "/>
<polygon fill="#A4C2E4" points="554.072,242.728 577.771,243.705 574.011,157.571 550.966,153.322 "/>
<polygon fill="#A4C2E4" points="579.403,243.216 601.634,244.359 598.364,160.678 575.973,157.407 "/>
<polygon fill="#A4C2E4" points="603.105,244.359 624.681,245.016 620.104,163.946 599.838,161.004 "/>
<polygon fill="#A4C2E4" points="626.314,245.247 645.438,245.247 641.351,166.761 623.046,165.224 "/>
<polygon fill="#A4C2E4" points="239.438,241 268.858,241.799 267.633,137.289 238.702,133.3 "/>
<polygon fill="#A4C2E4" points="220.642,239.804 236.333,240.149 234.371,106.182 219.334,104.452 "/>
<polygon fill="#A4C2E4" points="191.875,239.962 219.008,238.251 216.719,104.452 192.202,114.717 "/>
<polygon fill="#A4C2E4" points="626.436,248.773 645.438,249.264 649.524,317.911 629.012,319.629 "/>
<polygon fill="#A4C2E4" points="606.209,321.099 626.968,319.219 624.352,248.652 603.391,247.916 "/>
<polygon fill="#A4C2E4" points="582.429,322.078 604.248,321.589 601.92,247.794 579.978,247.058 "/>
<polygon fill="#A4C2E4" points="557.177,323.796 580.468,322.078 577.608,246.649 553.989,245.956 "/>
<polygon fill="#A4C2E4" points="529.718,325.513 554.234,324.041 552.272,246.322 526.776,244.851 "/>
<polygon fill="#A4C2E4" points="500.134,327.392 527.266,326.41 524.814,244.851 498.337,244.116 "/>
<polygon fill="#A4C2E4" points="477.742,243.381 496.252,243.993 498.172,327.72 478.232,328.699 "/>
<polygon fill="#A4C2E4" points="441.457,241.909 474.31,242.891 475.617,329.026 443.253,331.313 "/>
<polygon fill="#A4C2E4" points="406.643,332.621 404.192,240.929 439.006,242.399 440.64,330.661 "/>
<polygon fill="#A4C2E4" points="365.453,335.565 403.7,332.95 402.229,240.929 363.494,239.459 "/>
<polygon fill="#A4C2E4" points="321.977,338.179 362.839,335.237 360.552,239.948 319.362,237.987 "/>
<polygon fill="#A4C2E4" points="273.271,340.796 318.709,338.179 316.42,237.987 271.875,236.997 "/>
<polygon fill="#A4C2E4" points="241.89,342.674 269.594,341.08 268.858,237.005 239.375,235.747 "/>
<polygon fill="#A4C2E4" points="223.012,343.777 238.334,342.919 236.496,236.026 221.295,235.535 "/>
<polygon fill="#A4C2E4" points="191.875,237.005 219.333,235.207 220.315,344.021 192.366,343.287 "/>
<polygon fill="#7E94A8" points="217.375,235.31 221.25,235.06 223.012,344.134 219.58,344.435 "/>
<polygon fill="#A4C2E4" points="156.571,243.338 189.914,240.735 187.462,116.384 155.59,128.35 "/>
<polygon fill="#A4C2E4" points="-8.183,246.65 14.699,246.322 14.373,180.292 -8.837,189.116 "/>
<polygon fill="#A4C2E4" points="17,245.341 40.04,244.034 40.614,170.811 17,178.655 "/>
<polygon fill="#A4C2E4" points="44,243.706 75,241.746 75,158.062 44,169.503 "/>
<polygon fill="#A4C2E4" points="78.443,241.419 112.768,239.783 114.075,144.986 78.771,156.755 "/>
<polygon fill="#A4C2E4" points="-9.49,338.506 14.046,339.487 14.373,249.264 -7.856,250.245 "/>
<polygon fill="#A4C2E4" points="156.571,239.459 188.933,237.169 188.279,343.081 158.042,342.428 "/>
<polygon fill="#A4C2E4" points="48.696,295.847 67.452,295.725 67.82,260.911 48.207,261.216 "/>
<polygon fill="#A4C2E4" points="48.207,299.769 67.698,299.892 68.065,340.345 47.471,339.976 "/>
<polygon fill="#A4C2E4" points="70.517,295.847 94.298,295.355 93.808,259.562 71.007,260.052 "/>
<polygon fill="#A4C2E4" points="71.252,299.523 94.298,299.769 94.789,340.958 71.621,340.468 "/>
<polygon fill="#A4C2E4" points="20.012,256.619 39.434,255.623 40,339.582 20.834,339.249 "/>
<polygon fill="#A4C2E4" points="136.5,257.247 137.75,294.247 154.61,294.618 153.874,255.393 "/>
<polygon fill="#A4C2E4" points="137.75,298.497 154.12,298.299 154.242,342.428 138.061,342.062 "/>
<polygon fill="#4D6368" points="200.396,87.085 201.499,79.24 216.147,81.814 "/>
<g>
	<polygon fill="#999999" points="108.028,119.979 119.469,160.841 126.333,159.86 113.258,117.364 	"/>
	<polygon fill="#808080" points="126.333,159.86 132.872,160.841 145.293,111.726 138.183,112.215 127.314,142.208 124.373,141.555 
		117.181,118.672 113.258,117.364 	"/>
	<polygon fill="#808080" points="123,341.747 135,341.997 132.872,161.14 126.333,160.009 119.469,161.214 	"/>
</g>
<polygon fill="#EF7F11" points="163.689,98.792 173.985,100.998 179.87,67.902 166.824,65.696 "/>
<polyline fill="#EDB985" points="-98.077,209.713 173.985,100.998 163.689,98.792 -108.702,209.384 -98.077,209.713 "/>
<polyline fill="#F7931E" points="164.37,98.724 -110,209.384 -110,185.849 167.128,65.696 "/>
<polygon fill="#546E7A" points="220,343.898 657,317.584 657,325.267 220,352.726 "/>
<line fill="none" x1="239.438" y1="235.045" x2="645.438" y2="249.264"/>
<line fill="none" x1="221.295" y1="147.535" x2="645.438" y2="161.264"/>
<polygon fill="#546E7A" points="220,342.898 -17.166,337.506 -18.47,341.919 220,351.726 "/>
</svg>
