<?xml version="1.0" encoding="utf-8"?>
<!-- Generator: Adobe Illustrator 16.0.0, SVG Export Plug-In . SVG Version: 6.00 Build 0)  -->
<!DOCTYPE svg PUBLIC "-//W3C//DTD SVG 1.1//EN" "http://www.w3.org/Graphics/SVG/1.1/DTD/svg11.dtd">
<svg version="1.1" id="Layer_1" xmlns="http://www.w3.org/2000/svg" xmlns:xlink="http://www.w3.org/1999/xlink" x="0px" y="0px"
	 width="924.093px" height="501.741px" viewBox="0 0 924.093 501.741" enable-background="new 0 0 924.093 501.741"
	 xml:space="preserve">
<g>
	<polygon fill="#5D4130" points="548.935,435.241 438.215,51.966 430.286,51.087 540.124,437.885 	"/>
	<path fill="#EDE6B5" d="M514.867,249.039c0,0,169.168,123.354,187.963,157.417c0,0-97.509-11.749-149.195,8.229L514.867,249.039z"
		/>
	<path fill="#FFFAD0" d="M430.28,36.987l107.498,374.464c0,0-185.911-19.384-296.05,7.929
		C241.729,419.38,247.018,341.844,430.28,36.987"/>
	<path fill="#FFFAD0" d="M434.98,36.987l96.332,318.367c0,0,98.682-9.4,160.945,11.745C692.258,367.1,561.858,166.214,434.98,36.987
		"/>
	<polygon fill="#72503B" points="286.957,442.287 284.604,428.191 672.285,415.269 666.412,434.063 	"/>
	<path fill="#FFFAD0" d="M245.434,446.416c5.783,10.018,15.688,25.691,27.43,38.166h392.375c0,0,23.422-25.766,38.447-46.108
		C587.797,440.965,317.283,445.281,245.434,446.416"/>
	<path fill="#5D4130" d="M712.23,425.841l-472.263,10.572c0,0,1.985,3.976,5.466,10.003c71.855-1.135,342.363-5.451,458.247-7.942
		C707.082,433.862,710.062,429.531,712.23,425.841"/>
</g>
</svg>
